<mxfile host="app.diagrams.net" modified="2024-05-25T10:29:14.197Z" agent="Mozilla/5.0 (Windows NT 10.0; Win64; x64) AppleWebKit/537.36 (KHTML, like Gecko) Chrome/125.0.0.0 Safari/537.36" etag="4DuVjznaB8oyAAQBUj_U" version="24.4.8" type="google">
  <diagram name="Page-1" id="Ma98fStiUOtEAZ67zCDE">
    <mxGraphModel grid="1" page="1" gridSize="10" guides="1" tooltips="1" connect="1" arrows="1" fold="1" pageScale="1" pageWidth="850" pageHeight="1100" math="0" shadow="0">
      <root>
        <mxCell id="0" />
        <mxCell id="1" parent="0" />
        <mxCell id="HWamq-SZzbTKF-_1uP7r-11" value="&lt;font style=&quot;font-size: 18px;&quot;&gt;fact_orders&lt;/font&gt;" style="shape=table;startSize=50;container=1;collapsible=1;childLayout=tableLayout;fixedRows=1;rowLines=0;fontStyle=1;align=center;resizeLast=1;html=1;fillColor=#8AE6D5;" vertex="1" parent="1">
          <mxGeometry x="350" y="150" width="250" height="350" as="geometry" />
        </mxCell>
        <mxCell id="HWamq-SZzbTKF-_1uP7r-12" value="" style="shape=tableRow;horizontal=0;startSize=0;swimlaneHead=0;swimlaneBody=0;fillColor=none;collapsible=0;dropTarget=0;points=[[0,0.5],[1,0.5]];portConstraint=eastwest;top=0;left=0;right=0;bottom=1;" vertex="1" parent="HWamq-SZzbTKF-_1uP7r-11">
          <mxGeometry y="50" width="250" height="30" as="geometry" />
        </mxCell>
        <mxCell id="HWamq-SZzbTKF-_1uP7r-13" value="PK" style="shape=partialRectangle;connectable=0;fillColor=#A9C4EB;top=0;left=0;bottom=0;right=0;fontStyle=1;overflow=hidden;whiteSpace=wrap;html=1;" vertex="1" parent="HWamq-SZzbTKF-_1uP7r-12">
          <mxGeometry width="30" height="30" as="geometry">
            <mxRectangle width="30" height="30" as="alternateBounds" />
          </mxGeometry>
        </mxCell>
        <mxCell id="HWamq-SZzbTKF-_1uP7r-14" value="order_id INT NOT NULL" style="shape=partialRectangle;connectable=0;fillColor=#FFF4C3;top=0;left=0;bottom=0;right=0;align=left;spacingLeft=6;fontStyle=5;overflow=hidden;whiteSpace=wrap;html=1;" vertex="1" parent="HWamq-SZzbTKF-_1uP7r-12">
          <mxGeometry x="30" width="220" height="30" as="geometry">
            <mxRectangle width="220" height="30" as="alternateBounds" />
          </mxGeometry>
        </mxCell>
        <mxCell id="HWamq-SZzbTKF-_1uP7r-127" value="" style="shape=tableRow;horizontal=0;startSize=0;swimlaneHead=0;swimlaneBody=0;fillColor=none;collapsible=0;dropTarget=0;points=[[0,0.5],[1,0.5]];portConstraint=eastwest;top=0;left=0;right=0;bottom=0;" vertex="1" parent="HWamq-SZzbTKF-_1uP7r-11">
          <mxGeometry y="80" width="250" height="30" as="geometry" />
        </mxCell>
        <mxCell id="HWamq-SZzbTKF-_1uP7r-128" value="" style="shape=partialRectangle;connectable=0;fillColor=none;top=0;left=0;bottom=0;right=0;editable=1;overflow=hidden;whiteSpace=wrap;html=1;" vertex="1" parent="HWamq-SZzbTKF-_1uP7r-127">
          <mxGeometry width="30" height="30" as="geometry">
            <mxRectangle width="30" height="30" as="alternateBounds" />
          </mxGeometry>
        </mxCell>
        <mxCell id="HWamq-SZzbTKF-_1uP7r-129" value="&lt;font face=&quot;Comic Sans MS&quot;&gt;order_date DATE NOT NULL&lt;/font&gt;" style="shape=partialRectangle;connectable=0;fillColor=none;top=0;left=0;bottom=0;right=0;align=left;spacingLeft=6;overflow=hidden;whiteSpace=wrap;html=1;" vertex="1" parent="HWamq-SZzbTKF-_1uP7r-127">
          <mxGeometry x="30" width="220" height="30" as="geometry">
            <mxRectangle width="220" height="30" as="alternateBounds" />
          </mxGeometry>
        </mxCell>
        <mxCell id="HWamq-SZzbTKF-_1uP7r-15" value="" style="shape=tableRow;horizontal=0;startSize=0;swimlaneHead=0;swimlaneBody=0;fillColor=none;collapsible=0;dropTarget=0;points=[[0,0.5],[1,0.5]];portConstraint=eastwest;top=0;left=0;right=0;bottom=0;" vertex="1" parent="HWamq-SZzbTKF-_1uP7r-11">
          <mxGeometry y="110" width="250" height="30" as="geometry" />
        </mxCell>
        <mxCell id="HWamq-SZzbTKF-_1uP7r-16" value="FK" style="shape=partialRectangle;connectable=0;fillColor=#F8CECC;top=0;left=0;bottom=0;right=0;editable=1;overflow=hidden;whiteSpace=wrap;html=1;" vertex="1" parent="HWamq-SZzbTKF-_1uP7r-15">
          <mxGeometry width="30" height="30" as="geometry">
            <mxRectangle width="30" height="30" as="alternateBounds" />
          </mxGeometry>
        </mxCell>
        <mxCell id="HWamq-SZzbTKF-_1uP7r-17" value="&lt;font face=&quot;Comic Sans MS&quot;&gt;user_id INT NOT NULL&lt;/font&gt;" style="shape=partialRectangle;connectable=0;fillColor=none;top=0;left=0;bottom=0;right=0;align=left;spacingLeft=6;overflow=hidden;whiteSpace=wrap;html=1;" vertex="1" parent="HWamq-SZzbTKF-_1uP7r-15">
          <mxGeometry x="30" width="220" height="30" as="geometry">
            <mxRectangle width="220" height="30" as="alternateBounds" />
          </mxGeometry>
        </mxCell>
        <mxCell id="HWamq-SZzbTKF-_1uP7r-18" value="" style="shape=tableRow;horizontal=0;startSize=0;swimlaneHead=0;swimlaneBody=0;fillColor=none;collapsible=0;dropTarget=0;points=[[0,0.5],[1,0.5]];portConstraint=eastwest;top=0;left=0;right=0;bottom=0;" vertex="1" parent="HWamq-SZzbTKF-_1uP7r-11">
          <mxGeometry y="140" width="250" height="30" as="geometry" />
        </mxCell>
        <mxCell id="HWamq-SZzbTKF-_1uP7r-19" value="FK" style="shape=partialRectangle;connectable=0;fillColor=#F8CECC;top=0;left=0;bottom=0;right=0;editable=1;overflow=hidden;whiteSpace=wrap;html=1;" vertex="1" parent="HWamq-SZzbTKF-_1uP7r-18">
          <mxGeometry width="30" height="30" as="geometry">
            <mxRectangle width="30" height="30" as="alternateBounds" />
          </mxGeometry>
        </mxCell>
        <mxCell id="HWamq-SZzbTKF-_1uP7r-20" value="&lt;font face=&quot;Comic Sans MS&quot;&gt;payment_id INT NOT NULL&lt;/font&gt;" style="shape=partialRectangle;connectable=0;fillColor=none;top=0;left=0;bottom=0;right=0;align=left;spacingLeft=6;overflow=hidden;whiteSpace=wrap;html=1;" vertex="1" parent="HWamq-SZzbTKF-_1uP7r-18">
          <mxGeometry x="30" width="220" height="30" as="geometry">
            <mxRectangle width="220" height="30" as="alternateBounds" />
          </mxGeometry>
        </mxCell>
        <mxCell id="HWamq-SZzbTKF-_1uP7r-21" value="" style="shape=tableRow;horizontal=0;startSize=0;swimlaneHead=0;swimlaneBody=0;fillColor=none;collapsible=0;dropTarget=0;points=[[0,0.5],[1,0.5]];portConstraint=eastwest;top=0;left=0;right=0;bottom=0;" vertex="1" parent="HWamq-SZzbTKF-_1uP7r-11">
          <mxGeometry y="170" width="250" height="30" as="geometry" />
        </mxCell>
        <mxCell id="HWamq-SZzbTKF-_1uP7r-22" value="FK" style="shape=partialRectangle;connectable=0;fillColor=#F8CECC;top=0;left=0;bottom=0;right=0;editable=1;overflow=hidden;whiteSpace=wrap;html=1;" vertex="1" parent="HWamq-SZzbTKF-_1uP7r-21">
          <mxGeometry width="30" height="30" as="geometry">
            <mxRectangle width="30" height="30" as="alternateBounds" />
          </mxGeometry>
        </mxCell>
        <mxCell id="HWamq-SZzbTKF-_1uP7r-23" value="&lt;font face=&quot;Comic Sans MS&quot;&gt;shipper_id INT NOT NULL&lt;/font&gt;" style="shape=partialRectangle;connectable=0;fillColor=none;top=0;left=0;bottom=0;right=0;align=left;spacingLeft=6;overflow=hidden;whiteSpace=wrap;html=1;" vertex="1" parent="HWamq-SZzbTKF-_1uP7r-21">
          <mxGeometry x="30" width="220" height="30" as="geometry">
            <mxRectangle width="220" height="30" as="alternateBounds" />
          </mxGeometry>
        </mxCell>
        <mxCell id="HWamq-SZzbTKF-_1uP7r-130" value="" style="shape=tableRow;horizontal=0;startSize=0;swimlaneHead=0;swimlaneBody=0;fillColor=none;collapsible=0;dropTarget=0;points=[[0,0.5],[1,0.5]];portConstraint=eastwest;top=0;left=0;right=0;bottom=0;" vertex="1" parent="HWamq-SZzbTKF-_1uP7r-11">
          <mxGeometry y="200" width="250" height="30" as="geometry" />
        </mxCell>
        <mxCell id="HWamq-SZzbTKF-_1uP7r-131" value="" style="shape=partialRectangle;connectable=0;fillColor=none;top=0;left=0;bottom=0;right=0;editable=1;overflow=hidden;whiteSpace=wrap;html=1;" vertex="1" parent="HWamq-SZzbTKF-_1uP7r-130">
          <mxGeometry width="30" height="30" as="geometry">
            <mxRectangle width="30" height="30" as="alternateBounds" />
          </mxGeometry>
        </mxCell>
        <mxCell id="HWamq-SZzbTKF-_1uP7r-132" value="&lt;font face=&quot;Comic Sans MS&quot;&gt;order_price INT NOT NULL&lt;/font&gt;" style="shape=partialRectangle;connectable=0;fillColor=none;top=0;left=0;bottom=0;right=0;align=left;spacingLeft=6;overflow=hidden;whiteSpace=wrap;html=1;" vertex="1" parent="HWamq-SZzbTKF-_1uP7r-130">
          <mxGeometry x="30" width="220" height="30" as="geometry">
            <mxRectangle width="220" height="30" as="alternateBounds" />
          </mxGeometry>
        </mxCell>
        <mxCell id="HWamq-SZzbTKF-_1uP7r-133" value="" style="shape=tableRow;horizontal=0;startSize=0;swimlaneHead=0;swimlaneBody=0;fillColor=none;collapsible=0;dropTarget=0;points=[[0,0.5],[1,0.5]];portConstraint=eastwest;top=0;left=0;right=0;bottom=0;" vertex="1" parent="HWamq-SZzbTKF-_1uP7r-11">
          <mxGeometry y="230" width="250" height="30" as="geometry" />
        </mxCell>
        <mxCell id="HWamq-SZzbTKF-_1uP7r-134" value="" style="shape=partialRectangle;connectable=0;fillColor=none;top=0;left=0;bottom=0;right=0;editable=1;overflow=hidden;whiteSpace=wrap;html=1;" vertex="1" parent="HWamq-SZzbTKF-_1uP7r-133">
          <mxGeometry width="30" height="30" as="geometry">
            <mxRectangle width="30" height="30" as="alternateBounds" />
          </mxGeometry>
        </mxCell>
        <mxCell id="HWamq-SZzbTKF-_1uP7r-135" value="&lt;font face=&quot;Comic Sans MS&quot;&gt;order_discount INT&lt;/font&gt;" style="shape=partialRectangle;connectable=0;fillColor=none;top=0;left=0;bottom=0;right=0;align=left;spacingLeft=6;overflow=hidden;whiteSpace=wrap;html=1;" vertex="1" parent="HWamq-SZzbTKF-_1uP7r-133">
          <mxGeometry x="30" width="220" height="30" as="geometry">
            <mxRectangle width="220" height="30" as="alternateBounds" />
          </mxGeometry>
        </mxCell>
        <mxCell id="HWamq-SZzbTKF-_1uP7r-136" value="" style="shape=tableRow;horizontal=0;startSize=0;swimlaneHead=0;swimlaneBody=0;fillColor=none;collapsible=0;dropTarget=0;points=[[0,0.5],[1,0.5]];portConstraint=eastwest;top=0;left=0;right=0;bottom=0;" vertex="1" parent="HWamq-SZzbTKF-_1uP7r-11">
          <mxGeometry y="260" width="250" height="30" as="geometry" />
        </mxCell>
        <mxCell id="HWamq-SZzbTKF-_1uP7r-137" value="" style="shape=partialRectangle;connectable=0;fillColor=none;top=0;left=0;bottom=0;right=0;editable=1;overflow=hidden;whiteSpace=wrap;html=1;" vertex="1" parent="HWamq-SZzbTKF-_1uP7r-136">
          <mxGeometry width="30" height="30" as="geometry">
            <mxRectangle width="30" height="30" as="alternateBounds" />
          </mxGeometry>
        </mxCell>
        <mxCell id="HWamq-SZzbTKF-_1uP7r-138" value="&lt;font face=&quot;Comic Sans MS&quot;&gt;voucher_id INT NOT NULL&lt;/font&gt;" style="shape=partialRectangle;connectable=0;fillColor=none;top=0;left=0;bottom=0;right=0;align=left;spacingLeft=6;overflow=hidden;whiteSpace=wrap;html=1;" vertex="1" parent="HWamq-SZzbTKF-_1uP7r-136">
          <mxGeometry x="30" width="220" height="30" as="geometry">
            <mxRectangle width="220" height="30" as="alternateBounds" />
          </mxGeometry>
        </mxCell>
        <mxCell id="HWamq-SZzbTKF-_1uP7r-139" value="" style="shape=tableRow;horizontal=0;startSize=0;swimlaneHead=0;swimlaneBody=0;fillColor=none;collapsible=0;dropTarget=0;points=[[0,0.5],[1,0.5]];portConstraint=eastwest;top=0;left=0;right=0;bottom=0;" vertex="1" parent="HWamq-SZzbTKF-_1uP7r-11">
          <mxGeometry y="290" width="250" height="30" as="geometry" />
        </mxCell>
        <mxCell id="HWamq-SZzbTKF-_1uP7r-140" value="" style="shape=partialRectangle;connectable=0;fillColor=none;top=0;left=0;bottom=0;right=0;editable=1;overflow=hidden;whiteSpace=wrap;html=1;" vertex="1" parent="HWamq-SZzbTKF-_1uP7r-139">
          <mxGeometry width="30" height="30" as="geometry">
            <mxRectangle width="30" height="30" as="alternateBounds" />
          </mxGeometry>
        </mxCell>
        <mxCell id="HWamq-SZzbTKF-_1uP7r-141" value="&lt;font face=&quot;Comic Sans MS&quot;&gt;order_total INT NOT NULL&lt;/font&gt;" style="shape=partialRectangle;connectable=0;fillColor=none;top=0;left=0;bottom=0;right=0;align=left;spacingLeft=6;overflow=hidden;whiteSpace=wrap;html=1;" vertex="1" parent="HWamq-SZzbTKF-_1uP7r-139">
          <mxGeometry x="30" width="220" height="30" as="geometry">
            <mxRectangle width="220" height="30" as="alternateBounds" />
          </mxGeometry>
        </mxCell>
        <mxCell id="HWamq-SZzbTKF-_1uP7r-142" value="" style="shape=tableRow;horizontal=0;startSize=0;swimlaneHead=0;swimlaneBody=0;fillColor=none;collapsible=0;dropTarget=0;points=[[0,0.5],[1,0.5]];portConstraint=eastwest;top=0;left=0;right=0;bottom=0;" vertex="1" parent="HWamq-SZzbTKF-_1uP7r-11">
          <mxGeometry y="320" width="250" height="30" as="geometry" />
        </mxCell>
        <mxCell id="HWamq-SZzbTKF-_1uP7r-143" value="FK" style="shape=partialRectangle;connectable=0;fillColor=#F8CECC;top=0;left=0;bottom=0;right=0;editable=1;overflow=hidden;whiteSpace=wrap;html=1;" vertex="1" parent="HWamq-SZzbTKF-_1uP7r-142">
          <mxGeometry width="30" height="30" as="geometry">
            <mxRectangle width="30" height="30" as="alternateBounds" />
          </mxGeometry>
        </mxCell>
        <mxCell id="HWamq-SZzbTKF-_1uP7r-144" value="&lt;font face=&quot;Comic Sans MS&quot;&gt;rating_id INT NOT NULL&lt;/font&gt;" style="shape=partialRectangle;connectable=0;fillColor=none;top=0;left=0;bottom=0;right=0;align=left;spacingLeft=6;overflow=hidden;whiteSpace=wrap;html=1;" vertex="1" parent="HWamq-SZzbTKF-_1uP7r-142">
          <mxGeometry x="30" width="220" height="30" as="geometry">
            <mxRectangle width="220" height="30" as="alternateBounds" />
          </mxGeometry>
        </mxCell>
        <mxCell id="HWamq-SZzbTKF-_1uP7r-24" value="&lt;font style=&quot;font-size: 18px;&quot;&gt;dim_users&lt;/font&gt;" style="shape=table;startSize=40;container=1;collapsible=1;childLayout=tableLayout;fixedRows=1;rowLines=0;fontStyle=1;align=center;resizeLast=1;html=1;fillColor=#8AE6D5;" vertex="1" parent="1">
          <mxGeometry x="-60" y="-7" width="300" height="230" as="geometry">
            <mxRectangle x="-60" y="70" width="100" height="30" as="alternateBounds" />
          </mxGeometry>
        </mxCell>
        <mxCell id="HWamq-SZzbTKF-_1uP7r-25" value="" style="shape=tableRow;horizontal=0;startSize=0;swimlaneHead=0;swimlaneBody=0;fillColor=none;collapsible=0;dropTarget=0;points=[[0,0.5],[1,0.5]];portConstraint=eastwest;top=0;left=0;right=0;bottom=1;" vertex="1" parent="HWamq-SZzbTKF-_1uP7r-24">
          <mxGeometry y="40" width="300" height="30" as="geometry" />
        </mxCell>
        <mxCell id="HWamq-SZzbTKF-_1uP7r-26" value="PK" style="shape=partialRectangle;connectable=0;fillColor=#A9C4EB;top=0;left=0;bottom=0;right=0;fontStyle=1;overflow=hidden;whiteSpace=wrap;html=1;" vertex="1" parent="HWamq-SZzbTKF-_1uP7r-25">
          <mxGeometry width="20" height="30" as="geometry">
            <mxRectangle width="20" height="30" as="alternateBounds" />
          </mxGeometry>
        </mxCell>
        <mxCell id="HWamq-SZzbTKF-_1uP7r-27" value="user_id INT NOT NULL" style="shape=partialRectangle;connectable=0;fillColor=#FFF4C3;top=0;left=0;bottom=0;right=0;align=left;spacingLeft=6;fontStyle=5;overflow=hidden;whiteSpace=wrap;html=1;" vertex="1" parent="HWamq-SZzbTKF-_1uP7r-25">
          <mxGeometry x="20" width="280" height="30" as="geometry">
            <mxRectangle width="280" height="30" as="alternateBounds" />
          </mxGeometry>
        </mxCell>
        <mxCell id="HWamq-SZzbTKF-_1uP7r-28" value="" style="shape=tableRow;horizontal=0;startSize=0;swimlaneHead=0;swimlaneBody=0;fillColor=none;collapsible=0;dropTarget=0;points=[[0,0.5],[1,0.5]];portConstraint=eastwest;top=0;left=0;right=0;bottom=0;" vertex="1" parent="HWamq-SZzbTKF-_1uP7r-24">
          <mxGeometry y="70" width="300" height="30" as="geometry" />
        </mxCell>
        <mxCell id="HWamq-SZzbTKF-_1uP7r-29" value="" style="shape=partialRectangle;connectable=0;fillColor=none;top=0;left=0;bottom=0;right=0;editable=1;overflow=hidden;whiteSpace=wrap;html=1;" vertex="1" parent="HWamq-SZzbTKF-_1uP7r-28">
          <mxGeometry width="20" height="30" as="geometry">
            <mxRectangle width="20" height="30" as="alternateBounds" />
          </mxGeometry>
        </mxCell>
        <mxCell id="HWamq-SZzbTKF-_1uP7r-30" value="&lt;font face=&quot;Comic Sans MS&quot;&gt;user_first_name VARCHAR ( 255 ) NOT NULL&lt;/font&gt;" style="shape=partialRectangle;connectable=0;fillColor=none;top=0;left=0;bottom=0;right=0;align=left;spacingLeft=6;overflow=hidden;whiteSpace=wrap;html=1;" vertex="1" parent="HWamq-SZzbTKF-_1uP7r-28">
          <mxGeometry x="20" width="280" height="30" as="geometry">
            <mxRectangle width="280" height="30" as="alternateBounds" />
          </mxGeometry>
        </mxCell>
        <mxCell id="HWamq-SZzbTKF-_1uP7r-31" value="" style="shape=tableRow;horizontal=0;startSize=0;swimlaneHead=0;swimlaneBody=0;fillColor=none;collapsible=0;dropTarget=0;points=[[0,0.5],[1,0.5]];portConstraint=eastwest;top=0;left=0;right=0;bottom=0;" vertex="1" parent="HWamq-SZzbTKF-_1uP7r-24">
          <mxGeometry y="100" width="300" height="30" as="geometry" />
        </mxCell>
        <mxCell id="HWamq-SZzbTKF-_1uP7r-32" value="" style="shape=partialRectangle;connectable=0;fillColor=none;top=0;left=0;bottom=0;right=0;editable=1;overflow=hidden;whiteSpace=wrap;html=1;" vertex="1" parent="HWamq-SZzbTKF-_1uP7r-31">
          <mxGeometry width="20" height="30" as="geometry">
            <mxRectangle width="20" height="30" as="alternateBounds" />
          </mxGeometry>
        </mxCell>
        <mxCell id="HWamq-SZzbTKF-_1uP7r-33" value="&lt;font face=&quot;Comic Sans MS&quot;&gt;user_last_name VARCHAR ( 255 ) NOT NULL&lt;/font&gt;" style="shape=partialRectangle;connectable=0;fillColor=none;top=0;left=0;bottom=0;right=0;align=left;spacingLeft=6;overflow=hidden;whiteSpace=wrap;html=1;" vertex="1" parent="HWamq-SZzbTKF-_1uP7r-31">
          <mxGeometry x="20" width="280" height="30" as="geometry">
            <mxRectangle width="280" height="30" as="alternateBounds" />
          </mxGeometry>
        </mxCell>
        <mxCell id="HWamq-SZzbTKF-_1uP7r-34" value="" style="shape=tableRow;horizontal=0;startSize=0;swimlaneHead=0;swimlaneBody=0;fillColor=none;collapsible=0;dropTarget=0;points=[[0,0.5],[1,0.5]];portConstraint=eastwest;top=0;left=0;right=0;bottom=0;" vertex="1" parent="HWamq-SZzbTKF-_1uP7r-24">
          <mxGeometry y="130" width="300" height="20" as="geometry" />
        </mxCell>
        <mxCell id="HWamq-SZzbTKF-_1uP7r-35" value="" style="shape=partialRectangle;connectable=0;fillColor=none;top=0;left=0;bottom=0;right=0;editable=1;overflow=hidden;whiteSpace=wrap;html=1;" vertex="1" parent="HWamq-SZzbTKF-_1uP7r-34">
          <mxGeometry width="20" height="20" as="geometry">
            <mxRectangle width="20" height="20" as="alternateBounds" />
          </mxGeometry>
        </mxCell>
        <mxCell id="HWamq-SZzbTKF-_1uP7r-36" value="&lt;span style=&quot;font-family: &amp;quot;Comic Sans MS&amp;quot;;&quot;&gt;user_gender VARCHAR ( 50 ) NOT NULL&lt;/span&gt;" style="shape=partialRectangle;connectable=0;fillColor=none;top=0;left=0;bottom=0;right=0;align=left;spacingLeft=6;overflow=hidden;whiteSpace=wrap;html=1;" vertex="1" parent="HWamq-SZzbTKF-_1uP7r-34">
          <mxGeometry x="20" width="280" height="20" as="geometry">
            <mxRectangle width="280" height="20" as="alternateBounds" />
          </mxGeometry>
        </mxCell>
        <mxCell id="HWamq-SZzbTKF-_1uP7r-73" value="" style="shape=tableRow;horizontal=0;startSize=0;swimlaneHead=0;swimlaneBody=0;fillColor=none;collapsible=0;dropTarget=0;points=[[0,0.5],[1,0.5]];portConstraint=eastwest;top=0;left=0;right=0;bottom=0;" vertex="1" parent="HWamq-SZzbTKF-_1uP7r-24">
          <mxGeometry y="150" width="300" height="30" as="geometry" />
        </mxCell>
        <mxCell id="HWamq-SZzbTKF-_1uP7r-74" value="" style="shape=partialRectangle;connectable=0;fillColor=none;top=0;left=0;bottom=0;right=0;editable=1;overflow=hidden;whiteSpace=wrap;html=1;" vertex="1" parent="HWamq-SZzbTKF-_1uP7r-73">
          <mxGeometry width="20" height="30" as="geometry">
            <mxRectangle width="20" height="30" as="alternateBounds" />
          </mxGeometry>
        </mxCell>
        <mxCell id="HWamq-SZzbTKF-_1uP7r-75" value="&lt;font face=&quot;Comic Sans MS&quot;&gt;user_address VARCHAR ( 255 )&lt;/font&gt;" style="shape=partialRectangle;connectable=0;fillColor=none;top=0;left=0;bottom=0;right=0;align=left;spacingLeft=6;overflow=hidden;whiteSpace=wrap;html=1;" vertex="1" parent="HWamq-SZzbTKF-_1uP7r-73">
          <mxGeometry x="20" width="280" height="30" as="geometry">
            <mxRectangle width="280" height="30" as="alternateBounds" />
          </mxGeometry>
        </mxCell>
        <mxCell id="HWamq-SZzbTKF-_1uP7r-76" value="" style="shape=tableRow;horizontal=0;startSize=0;swimlaneHead=0;swimlaneBody=0;fillColor=none;collapsible=0;dropTarget=0;points=[[0,0.5],[1,0.5]];portConstraint=eastwest;top=0;left=0;right=0;bottom=0;" vertex="1" parent="HWamq-SZzbTKF-_1uP7r-24">
          <mxGeometry y="180" width="300" height="20" as="geometry" />
        </mxCell>
        <mxCell id="HWamq-SZzbTKF-_1uP7r-77" value="" style="shape=partialRectangle;connectable=0;fillColor=none;top=0;left=0;bottom=0;right=0;editable=1;overflow=hidden;whiteSpace=wrap;html=1;" vertex="1" parent="HWamq-SZzbTKF-_1uP7r-76">
          <mxGeometry width="20" height="20" as="geometry">
            <mxRectangle width="20" height="20" as="alternateBounds" />
          </mxGeometry>
        </mxCell>
        <mxCell id="HWamq-SZzbTKF-_1uP7r-78" value="&lt;font face=&quot;Comic Sans MS&quot;&gt;user_birthdate DATE NOT NULL&lt;/font&gt;" style="shape=partialRectangle;connectable=0;fillColor=none;top=0;left=0;bottom=0;right=0;align=left;spacingLeft=6;overflow=hidden;whiteSpace=wrap;html=1;" vertex="1" parent="HWamq-SZzbTKF-_1uP7r-76">
          <mxGeometry x="20" width="280" height="20" as="geometry">
            <mxRectangle width="280" height="20" as="alternateBounds" />
          </mxGeometry>
        </mxCell>
        <mxCell id="HWamq-SZzbTKF-_1uP7r-79" value="" style="shape=tableRow;horizontal=0;startSize=0;swimlaneHead=0;swimlaneBody=0;fillColor=none;collapsible=0;dropTarget=0;points=[[0,0.5],[1,0.5]];portConstraint=eastwest;top=0;left=0;right=0;bottom=0;" vertex="1" parent="HWamq-SZzbTKF-_1uP7r-24">
          <mxGeometry y="200" width="300" height="30" as="geometry" />
        </mxCell>
        <mxCell id="HWamq-SZzbTKF-_1uP7r-80" value="" style="shape=partialRectangle;connectable=0;fillColor=none;top=0;left=0;bottom=0;right=0;editable=1;overflow=hidden;whiteSpace=wrap;html=1;" vertex="1" parent="HWamq-SZzbTKF-_1uP7r-79">
          <mxGeometry width="20" height="30" as="geometry">
            <mxRectangle width="20" height="30" as="alternateBounds" />
          </mxGeometry>
        </mxCell>
        <mxCell id="HWamq-SZzbTKF-_1uP7r-81" value="&lt;font face=&quot;Comic Sans MS&quot;&gt;user_join DATE NOT NULL&lt;/font&gt;" style="shape=partialRectangle;connectable=0;fillColor=none;top=0;left=0;bottom=0;right=0;align=left;spacingLeft=6;overflow=hidden;whiteSpace=wrap;html=1;" vertex="1" parent="HWamq-SZzbTKF-_1uP7r-79">
          <mxGeometry x="20" width="280" height="30" as="geometry">
            <mxRectangle width="280" height="30" as="alternateBounds" />
          </mxGeometry>
        </mxCell>
        <mxCell id="HWamq-SZzbTKF-_1uP7r-37" value="" style="edgeStyle=entityRelationEdgeStyle;fontSize=12;html=1;endArrow=ERoneToMany;rounded=0;exitX=1;exitY=0.5;exitDx=0;exitDy=0;fillColor=#FF0000;" edge="1" parent="1" source="HWamq-SZzbTKF-_1uP7r-25" target="HWamq-SZzbTKF-_1uP7r-15">
          <mxGeometry width="100" height="100" relative="1" as="geometry">
            <mxPoint x="280" y="200" as="sourcePoint" />
            <mxPoint x="380" y="100" as="targetPoint" />
          </mxGeometry>
        </mxCell>
        <mxCell id="HWamq-SZzbTKF-_1uP7r-38" value="&lt;font style=&quot;font-size: 18px;&quot;&gt;dim_payments&lt;/font&gt;" style="shape=table;startSize=40;container=1;collapsible=1;childLayout=tableLayout;fixedRows=1;rowLines=0;fontStyle=1;align=center;resizeLast=1;html=1;fillColor=#8AE6D5;" vertex="1" parent="1">
          <mxGeometry x="-60" y="445" width="300" height="135" as="geometry" />
        </mxCell>
        <mxCell id="HWamq-SZzbTKF-_1uP7r-39" value="" style="shape=tableRow;horizontal=0;startSize=0;swimlaneHead=0;swimlaneBody=0;fillColor=none;collapsible=0;dropTarget=0;points=[[0,0.5],[1,0.5]];portConstraint=eastwest;top=0;left=0;right=0;bottom=1;" vertex="1" parent="HWamq-SZzbTKF-_1uP7r-38">
          <mxGeometry y="40" width="300" height="30" as="geometry" />
        </mxCell>
        <mxCell id="HWamq-SZzbTKF-_1uP7r-40" value="PK" style="shape=partialRectangle;connectable=0;fillColor=#A9C4EB;top=0;left=0;bottom=0;right=0;fontStyle=1;overflow=hidden;whiteSpace=wrap;html=1;" vertex="1" parent="HWamq-SZzbTKF-_1uP7r-39">
          <mxGeometry width="30" height="30" as="geometry">
            <mxRectangle width="30" height="30" as="alternateBounds" />
          </mxGeometry>
        </mxCell>
        <mxCell id="HWamq-SZzbTKF-_1uP7r-41" value="payment_id INT NOT NULL" style="shape=partialRectangle;connectable=0;fillColor=#FFF4C3;top=0;left=0;bottom=0;right=0;align=left;spacingLeft=6;fontStyle=5;overflow=hidden;whiteSpace=wrap;html=1;" vertex="1" parent="HWamq-SZzbTKF-_1uP7r-39">
          <mxGeometry x="30" width="270" height="30" as="geometry">
            <mxRectangle width="270" height="30" as="alternateBounds" />
          </mxGeometry>
        </mxCell>
        <mxCell id="HWamq-SZzbTKF-_1uP7r-42" value="" style="shape=tableRow;horizontal=0;startSize=0;swimlaneHead=0;swimlaneBody=0;fillColor=none;collapsible=0;dropTarget=0;points=[[0,0.5],[1,0.5]];portConstraint=eastwest;top=0;left=0;right=0;bottom=0;" vertex="1" parent="HWamq-SZzbTKF-_1uP7r-38">
          <mxGeometry y="70" width="300" height="30" as="geometry" />
        </mxCell>
        <mxCell id="HWamq-SZzbTKF-_1uP7r-43" value="" style="shape=partialRectangle;connectable=0;fillColor=none;top=0;left=0;bottom=0;right=0;editable=1;overflow=hidden;whiteSpace=wrap;html=1;" vertex="1" parent="HWamq-SZzbTKF-_1uP7r-42">
          <mxGeometry width="30" height="30" as="geometry">
            <mxRectangle width="30" height="30" as="alternateBounds" />
          </mxGeometry>
        </mxCell>
        <mxCell id="HWamq-SZzbTKF-_1uP7r-44" value="&lt;font face=&quot;Comic Sans MS&quot;&gt;payment_name VARCHAR ( 255 ) NOT NULL&lt;/font&gt;" style="shape=partialRectangle;connectable=0;fillColor=none;top=0;left=0;bottom=0;right=0;align=left;spacingLeft=6;overflow=hidden;whiteSpace=wrap;html=1;" vertex="1" parent="HWamq-SZzbTKF-_1uP7r-42">
          <mxGeometry x="30" width="270" height="30" as="geometry">
            <mxRectangle width="270" height="30" as="alternateBounds" />
          </mxGeometry>
        </mxCell>
        <mxCell id="HWamq-SZzbTKF-_1uP7r-45" value="" style="shape=tableRow;horizontal=0;startSize=0;swimlaneHead=0;swimlaneBody=0;fillColor=none;collapsible=0;dropTarget=0;points=[[0,0.5],[1,0.5]];portConstraint=eastwest;top=0;left=0;right=0;bottom=0;" vertex="1" parent="HWamq-SZzbTKF-_1uP7r-38">
          <mxGeometry y="100" width="300" height="35" as="geometry" />
        </mxCell>
        <mxCell id="HWamq-SZzbTKF-_1uP7r-46" value="" style="shape=partialRectangle;connectable=0;fillColor=none;top=0;left=0;bottom=0;right=0;editable=1;overflow=hidden;whiteSpace=wrap;html=1;" vertex="1" parent="HWamq-SZzbTKF-_1uP7r-45">
          <mxGeometry width="30" height="35" as="geometry">
            <mxRectangle width="30" height="35" as="alternateBounds" />
          </mxGeometry>
        </mxCell>
        <mxCell id="HWamq-SZzbTKF-_1uP7r-47" value="&lt;font face=&quot;Comic Sans MS&quot;&gt;payment_status BOOLEAN NOT NULL&lt;/font&gt;" style="shape=partialRectangle;connectable=0;fillColor=none;top=0;left=0;bottom=0;right=0;align=left;spacingLeft=6;overflow=hidden;whiteSpace=wrap;html=1;" vertex="1" parent="HWamq-SZzbTKF-_1uP7r-45">
          <mxGeometry x="30" width="270" height="35" as="geometry">
            <mxRectangle width="270" height="35" as="alternateBounds" />
          </mxGeometry>
        </mxCell>
        <mxCell id="HWamq-SZzbTKF-_1uP7r-51" value="" style="edgeStyle=entityRelationEdgeStyle;fontSize=12;html=1;endArrow=ERoneToMany;rounded=0;exitX=1;exitY=0.5;exitDx=0;exitDy=0;entryX=0;entryY=0.5;entryDx=0;entryDy=0;" edge="1" parent="1" source="HWamq-SZzbTKF-_1uP7r-39" target="HWamq-SZzbTKF-_1uP7r-18">
          <mxGeometry width="100" height="100" relative="1" as="geometry">
            <mxPoint x="280" y="290" as="sourcePoint" />
            <mxPoint x="380" y="190" as="targetPoint" />
          </mxGeometry>
        </mxCell>
        <mxCell id="HWamq-SZzbTKF-_1uP7r-52" value="&lt;font style=&quot;font-size: 18px;&quot;&gt;fact_order_items&lt;/font&gt;" style="shape=table;startSize=60;container=1;collapsible=1;childLayout=tableLayout;fixedRows=1;rowLines=0;fontStyle=1;align=center;resizeLast=1;html=1;fillColor=#8AE6D5;" vertex="1" parent="1">
          <mxGeometry x="680" y="300" width="290" height="300" as="geometry" />
        </mxCell>
        <mxCell id="HWamq-SZzbTKF-_1uP7r-53" value="" style="shape=tableRow;horizontal=0;startSize=0;swimlaneHead=0;swimlaneBody=0;fillColor=none;collapsible=0;dropTarget=0;points=[[0,0.5],[1,0.5]];portConstraint=eastwest;top=0;left=0;right=0;bottom=1;" vertex="1" parent="HWamq-SZzbTKF-_1uP7r-52">
          <mxGeometry y="60" width="290" height="30" as="geometry" />
        </mxCell>
        <mxCell id="HWamq-SZzbTKF-_1uP7r-54" value="PK" style="shape=partialRectangle;connectable=0;fillColor=#A9C4EB;top=0;left=0;bottom=0;right=0;fontStyle=1;overflow=hidden;whiteSpace=wrap;html=1;" vertex="1" parent="HWamq-SZzbTKF-_1uP7r-53">
          <mxGeometry width="30" height="30" as="geometry">
            <mxRectangle width="30" height="30" as="alternateBounds" />
          </mxGeometry>
        </mxCell>
        <mxCell id="HWamq-SZzbTKF-_1uP7r-55" value="order_item_id INT NOT NULL" style="shape=partialRectangle;connectable=0;fillColor=#FFF4C3;top=0;left=0;bottom=0;right=0;align=left;spacingLeft=6;fontStyle=5;overflow=hidden;whiteSpace=wrap;html=1;" vertex="1" parent="HWamq-SZzbTKF-_1uP7r-53">
          <mxGeometry x="30" width="260" height="30" as="geometry">
            <mxRectangle width="260" height="30" as="alternateBounds" />
          </mxGeometry>
        </mxCell>
        <mxCell id="HWamq-SZzbTKF-_1uP7r-56" value="" style="shape=tableRow;horizontal=0;startSize=0;swimlaneHead=0;swimlaneBody=0;fillColor=none;collapsible=0;dropTarget=0;points=[[0,0.5],[1,0.5]];portConstraint=eastwest;top=0;left=0;right=0;bottom=0;" vertex="1" parent="HWamq-SZzbTKF-_1uP7r-52">
          <mxGeometry y="90" width="290" height="30" as="geometry" />
        </mxCell>
        <mxCell id="HWamq-SZzbTKF-_1uP7r-57" value="FK" style="shape=partialRectangle;connectable=0;fillColor=#F8CECC;top=0;left=0;bottom=0;right=0;editable=1;overflow=hidden;whiteSpace=wrap;html=1;" vertex="1" parent="HWamq-SZzbTKF-_1uP7r-56">
          <mxGeometry width="30" height="30" as="geometry">
            <mxRectangle width="30" height="30" as="alternateBounds" />
          </mxGeometry>
        </mxCell>
        <mxCell id="HWamq-SZzbTKF-_1uP7r-58" value="&lt;font face=&quot;Comic Sans MS&quot;&gt;order_id INT NOT NULL&lt;/font&gt;" style="shape=partialRectangle;connectable=0;fillColor=none;top=0;left=0;bottom=0;right=0;align=left;spacingLeft=6;overflow=hidden;whiteSpace=wrap;html=1;" vertex="1" parent="HWamq-SZzbTKF-_1uP7r-56">
          <mxGeometry x="30" width="260" height="30" as="geometry">
            <mxRectangle width="260" height="30" as="alternateBounds" />
          </mxGeometry>
        </mxCell>
        <mxCell id="HWamq-SZzbTKF-_1uP7r-59" value="" style="shape=tableRow;horizontal=0;startSize=0;swimlaneHead=0;swimlaneBody=0;fillColor=none;collapsible=0;dropTarget=0;points=[[0,0.5],[1,0.5]];portConstraint=eastwest;top=0;left=0;right=0;bottom=0;" vertex="1" parent="HWamq-SZzbTKF-_1uP7r-52">
          <mxGeometry y="120" width="290" height="30" as="geometry" />
        </mxCell>
        <mxCell id="HWamq-SZzbTKF-_1uP7r-60" value="FK" style="shape=partialRectangle;connectable=0;fillColor=#F8CECC;top=0;left=0;bottom=0;right=0;editable=1;overflow=hidden;whiteSpace=wrap;html=1;" vertex="1" parent="HWamq-SZzbTKF-_1uP7r-59">
          <mxGeometry width="30" height="30" as="geometry">
            <mxRectangle width="30" height="30" as="alternateBounds" />
          </mxGeometry>
        </mxCell>
        <mxCell id="HWamq-SZzbTKF-_1uP7r-61" value="&lt;font face=&quot;Comic Sans MS&quot;&gt;product_id INT NOT NULL&lt;/font&gt;" style="shape=partialRectangle;connectable=0;fillColor=none;top=0;left=0;bottom=0;right=0;align=left;spacingLeft=6;overflow=hidden;whiteSpace=wrap;html=1;" vertex="1" parent="HWamq-SZzbTKF-_1uP7r-59">
          <mxGeometry x="30" width="260" height="30" as="geometry">
            <mxRectangle width="260" height="30" as="alternateBounds" />
          </mxGeometry>
        </mxCell>
        <mxCell id="HWamq-SZzbTKF-_1uP7r-62" value="" style="shape=tableRow;horizontal=0;startSize=0;swimlaneHead=0;swimlaneBody=0;fillColor=none;collapsible=0;dropTarget=0;points=[[0,0.5],[1,0.5]];portConstraint=eastwest;top=0;left=0;right=0;bottom=0;" vertex="1" parent="HWamq-SZzbTKF-_1uP7r-52">
          <mxGeometry y="150" width="290" height="30" as="geometry" />
        </mxCell>
        <mxCell id="HWamq-SZzbTKF-_1uP7r-63" value="" style="shape=partialRectangle;connectable=0;fillColor=none;top=0;left=0;bottom=0;right=0;editable=1;overflow=hidden;whiteSpace=wrap;html=1;" vertex="1" parent="HWamq-SZzbTKF-_1uP7r-62">
          <mxGeometry width="30" height="30" as="geometry">
            <mxRectangle width="30" height="30" as="alternateBounds" />
          </mxGeometry>
        </mxCell>
        <mxCell id="HWamq-SZzbTKF-_1uP7r-64" value="&lt;font face=&quot;Comic Sans MS&quot;&gt;order_item_quantity INT&lt;/font&gt;" style="shape=partialRectangle;connectable=0;fillColor=none;top=0;left=0;bottom=0;right=0;align=left;spacingLeft=6;overflow=hidden;whiteSpace=wrap;html=1;" vertex="1" parent="HWamq-SZzbTKF-_1uP7r-62">
          <mxGeometry x="30" width="260" height="30" as="geometry">
            <mxRectangle width="260" height="30" as="alternateBounds" />
          </mxGeometry>
        </mxCell>
        <mxCell id="HWamq-SZzbTKF-_1uP7r-147" value="" style="shape=tableRow;horizontal=0;startSize=0;swimlaneHead=0;swimlaneBody=0;fillColor=none;collapsible=0;dropTarget=0;points=[[0,0.5],[1,0.5]];portConstraint=eastwest;top=0;left=0;right=0;bottom=0;" vertex="1" parent="HWamq-SZzbTKF-_1uP7r-52">
          <mxGeometry y="180" width="290" height="30" as="geometry" />
        </mxCell>
        <mxCell id="HWamq-SZzbTKF-_1uP7r-148" value="" style="shape=partialRectangle;connectable=0;fillColor=none;top=0;left=0;bottom=0;right=0;editable=1;overflow=hidden;whiteSpace=wrap;html=1;" vertex="1" parent="HWamq-SZzbTKF-_1uP7r-147">
          <mxGeometry width="30" height="30" as="geometry">
            <mxRectangle width="30" height="30" as="alternateBounds" />
          </mxGeometry>
        </mxCell>
        <mxCell id="HWamq-SZzbTKF-_1uP7r-149" value="&lt;font face=&quot;Comic Sans MS&quot;&gt;product_discount INT&lt;/font&gt;" style="shape=partialRectangle;connectable=0;fillColor=none;top=0;left=0;bottom=0;right=0;align=left;spacingLeft=6;overflow=hidden;whiteSpace=wrap;html=1;" vertex="1" parent="HWamq-SZzbTKF-_1uP7r-147">
          <mxGeometry x="30" width="260" height="30" as="geometry">
            <mxRectangle width="260" height="30" as="alternateBounds" />
          </mxGeometry>
        </mxCell>
        <mxCell id="HWamq-SZzbTKF-_1uP7r-150" value="" style="shape=tableRow;horizontal=0;startSize=0;swimlaneHead=0;swimlaneBody=0;fillColor=none;collapsible=0;dropTarget=0;points=[[0,0.5],[1,0.5]];portConstraint=eastwest;top=0;left=0;right=0;bottom=0;" vertex="1" parent="HWamq-SZzbTKF-_1uP7r-52">
          <mxGeometry y="210" width="290" height="30" as="geometry" />
        </mxCell>
        <mxCell id="HWamq-SZzbTKF-_1uP7r-151" value="" style="shape=partialRectangle;connectable=0;fillColor=none;top=0;left=0;bottom=0;right=0;editable=1;overflow=hidden;whiteSpace=wrap;html=1;" vertex="1" parent="HWamq-SZzbTKF-_1uP7r-150">
          <mxGeometry width="30" height="30" as="geometry">
            <mxRectangle width="30" height="30" as="alternateBounds" />
          </mxGeometry>
        </mxCell>
        <mxCell id="HWamq-SZzbTKF-_1uP7r-152" value="&lt;font face=&quot;Comic Sans MS&quot;&gt;product_subdiscount INT&lt;/font&gt;" style="shape=partialRectangle;connectable=0;fillColor=none;top=0;left=0;bottom=0;right=0;align=left;spacingLeft=6;overflow=hidden;whiteSpace=wrap;html=1;" vertex="1" parent="HWamq-SZzbTKF-_1uP7r-150">
          <mxGeometry x="30" width="260" height="30" as="geometry">
            <mxRectangle width="260" height="30" as="alternateBounds" />
          </mxGeometry>
        </mxCell>
        <mxCell id="HWamq-SZzbTKF-_1uP7r-153" value="" style="shape=tableRow;horizontal=0;startSize=0;swimlaneHead=0;swimlaneBody=0;fillColor=none;collapsible=0;dropTarget=0;points=[[0,0.5],[1,0.5]];portConstraint=eastwest;top=0;left=0;right=0;bottom=0;" vertex="1" parent="HWamq-SZzbTKF-_1uP7r-52">
          <mxGeometry y="240" width="290" height="30" as="geometry" />
        </mxCell>
        <mxCell id="HWamq-SZzbTKF-_1uP7r-154" value="" style="shape=partialRectangle;connectable=0;fillColor=none;top=0;left=0;bottom=0;right=0;editable=1;overflow=hidden;whiteSpace=wrap;html=1;" vertex="1" parent="HWamq-SZzbTKF-_1uP7r-153">
          <mxGeometry width="30" height="30" as="geometry">
            <mxRectangle width="30" height="30" as="alternateBounds" />
          </mxGeometry>
        </mxCell>
        <mxCell id="HWamq-SZzbTKF-_1uP7r-155" value="&lt;font face=&quot;Comic Sans MS&quot;&gt;product_price INT NOT NULL&lt;/font&gt;" style="shape=partialRectangle;connectable=0;fillColor=none;top=0;left=0;bottom=0;right=0;align=left;spacingLeft=6;overflow=hidden;whiteSpace=wrap;html=1;" vertex="1" parent="HWamq-SZzbTKF-_1uP7r-153">
          <mxGeometry x="30" width="260" height="30" as="geometry">
            <mxRectangle width="260" height="30" as="alternateBounds" />
          </mxGeometry>
        </mxCell>
        <mxCell id="HWamq-SZzbTKF-_1uP7r-156" value="" style="shape=tableRow;horizontal=0;startSize=0;swimlaneHead=0;swimlaneBody=0;fillColor=none;collapsible=0;dropTarget=0;points=[[0,0.5],[1,0.5]];portConstraint=eastwest;top=0;left=0;right=0;bottom=0;" vertex="1" parent="HWamq-SZzbTKF-_1uP7r-52">
          <mxGeometry y="270" width="290" height="30" as="geometry" />
        </mxCell>
        <mxCell id="HWamq-SZzbTKF-_1uP7r-157" value="" style="shape=partialRectangle;connectable=0;fillColor=none;top=0;left=0;bottom=0;right=0;editable=1;overflow=hidden;whiteSpace=wrap;html=1;" vertex="1" parent="HWamq-SZzbTKF-_1uP7r-156">
          <mxGeometry width="30" height="30" as="geometry">
            <mxRectangle width="30" height="30" as="alternateBounds" />
          </mxGeometry>
        </mxCell>
        <mxCell id="HWamq-SZzbTKF-_1uP7r-158" value="&lt;font face=&quot;Comic Sans MS&quot;&gt;product_subprice INT NOT NULL&lt;/font&gt;" style="shape=partialRectangle;connectable=0;fillColor=none;top=0;left=0;bottom=0;right=0;align=left;spacingLeft=6;overflow=hidden;whiteSpace=wrap;html=1;" vertex="1" parent="HWamq-SZzbTKF-_1uP7r-156">
          <mxGeometry x="30" width="260" height="30" as="geometry">
            <mxRectangle width="260" height="30" as="alternateBounds" />
          </mxGeometry>
        </mxCell>
        <mxCell id="HWamq-SZzbTKF-_1uP7r-65" value="" style="edgeStyle=entityRelationEdgeStyle;fontSize=12;html=1;endArrow=ERoneToMany;rounded=0;exitX=1;exitY=0.5;exitDx=0;exitDy=0;entryX=0;entryY=0.5;entryDx=0;entryDy=0;" edge="1" parent="1" source="HWamq-SZzbTKF-_1uP7r-12" target="HWamq-SZzbTKF-_1uP7r-56">
          <mxGeometry width="100" height="100" relative="1" as="geometry">
            <mxPoint x="570" y="300" as="sourcePoint" />
            <mxPoint x="670" y="200" as="targetPoint" />
          </mxGeometry>
        </mxCell>
        <mxCell id="HWamq-SZzbTKF-_1uP7r-82" value="&lt;font style=&quot;font-size: 18px;&quot;&gt;dim_voucher&lt;/font&gt;" style="shape=table;startSize=40;container=1;collapsible=1;childLayout=tableLayout;fixedRows=1;rowLines=0;fontStyle=1;align=center;resizeLast=1;html=1;fillColor=#8AE6D5;" vertex="1" parent="1">
          <mxGeometry x="-510" y="180" width="310" height="190" as="geometry">
            <mxRectangle x="-60" y="70" width="100" height="30" as="alternateBounds" />
          </mxGeometry>
        </mxCell>
        <mxCell id="HWamq-SZzbTKF-_1uP7r-83" value="" style="shape=tableRow;horizontal=0;startSize=0;swimlaneHead=0;swimlaneBody=0;fillColor=none;collapsible=0;dropTarget=0;points=[[0,0.5],[1,0.5]];portConstraint=eastwest;top=0;left=0;right=0;bottom=1;" vertex="1" parent="HWamq-SZzbTKF-_1uP7r-82">
          <mxGeometry y="40" width="310" height="30" as="geometry" />
        </mxCell>
        <mxCell id="HWamq-SZzbTKF-_1uP7r-84" value="PK" style="shape=partialRectangle;connectable=0;fillColor=#A9C4EB;top=0;left=0;bottom=0;right=0;fontStyle=1;overflow=hidden;whiteSpace=wrap;html=1;" vertex="1" parent="HWamq-SZzbTKF-_1uP7r-83">
          <mxGeometry width="20" height="30" as="geometry">
            <mxRectangle width="20" height="30" as="alternateBounds" />
          </mxGeometry>
        </mxCell>
        <mxCell id="HWamq-SZzbTKF-_1uP7r-85" value="voucher_id INT NOT NULL" style="shape=partialRectangle;connectable=0;fillColor=#FFF4C3;top=0;left=0;bottom=0;right=0;align=left;spacingLeft=6;fontStyle=5;overflow=hidden;whiteSpace=wrap;html=1;" vertex="1" parent="HWamq-SZzbTKF-_1uP7r-83">
          <mxGeometry x="20" width="290" height="30" as="geometry">
            <mxRectangle width="290" height="30" as="alternateBounds" />
          </mxGeometry>
        </mxCell>
        <mxCell id="HWamq-SZzbTKF-_1uP7r-86" value="" style="shape=tableRow;horizontal=0;startSize=0;swimlaneHead=0;swimlaneBody=0;fillColor=none;collapsible=0;dropTarget=0;points=[[0,0.5],[1,0.5]];portConstraint=eastwest;top=0;left=0;right=0;bottom=0;" vertex="1" parent="HWamq-SZzbTKF-_1uP7r-82">
          <mxGeometry y="70" width="310" height="30" as="geometry" />
        </mxCell>
        <mxCell id="HWamq-SZzbTKF-_1uP7r-87" value="" style="shape=partialRectangle;connectable=0;fillColor=none;top=0;left=0;bottom=0;right=0;editable=1;overflow=hidden;whiteSpace=wrap;html=1;" vertex="1" parent="HWamq-SZzbTKF-_1uP7r-86">
          <mxGeometry width="20" height="30" as="geometry">
            <mxRectangle width="20" height="30" as="alternateBounds" />
          </mxGeometry>
        </mxCell>
        <mxCell id="HWamq-SZzbTKF-_1uP7r-88" value="&lt;font face=&quot;Comic Sans MS&quot;&gt;voucher_name VARCHAR ( 255 ) NOT NULL&lt;/font&gt;" style="shape=partialRectangle;connectable=0;fillColor=none;top=0;left=0;bottom=0;right=0;align=left;spacingLeft=6;overflow=hidden;whiteSpace=wrap;html=1;" vertex="1" parent="HWamq-SZzbTKF-_1uP7r-86">
          <mxGeometry x="20" width="290" height="30" as="geometry">
            <mxRectangle width="290" height="30" as="alternateBounds" />
          </mxGeometry>
        </mxCell>
        <mxCell id="HWamq-SZzbTKF-_1uP7r-89" value="" style="shape=tableRow;horizontal=0;startSize=0;swimlaneHead=0;swimlaneBody=0;fillColor=none;collapsible=0;dropTarget=0;points=[[0,0.5],[1,0.5]];portConstraint=eastwest;top=0;left=0;right=0;bottom=0;" vertex="1" parent="HWamq-SZzbTKF-_1uP7r-82">
          <mxGeometry y="100" width="310" height="30" as="geometry" />
        </mxCell>
        <mxCell id="HWamq-SZzbTKF-_1uP7r-90" value="" style="shape=partialRectangle;connectable=0;fillColor=none;top=0;left=0;bottom=0;right=0;editable=1;overflow=hidden;whiteSpace=wrap;html=1;" vertex="1" parent="HWamq-SZzbTKF-_1uP7r-89">
          <mxGeometry width="20" height="30" as="geometry">
            <mxRectangle width="20" height="30" as="alternateBounds" />
          </mxGeometry>
        </mxCell>
        <mxCell id="HWamq-SZzbTKF-_1uP7r-91" value="&lt;font face=&quot;Comic Sans MS&quot;&gt;voucher_price INT NOT NULL&lt;/font&gt;" style="shape=partialRectangle;connectable=0;fillColor=none;top=0;left=0;bottom=0;right=0;align=left;spacingLeft=6;overflow=hidden;whiteSpace=wrap;html=1;" vertex="1" parent="HWamq-SZzbTKF-_1uP7r-89">
          <mxGeometry x="20" width="290" height="30" as="geometry">
            <mxRectangle width="290" height="30" as="alternateBounds" />
          </mxGeometry>
        </mxCell>
        <mxCell id="HWamq-SZzbTKF-_1uP7r-95" value="" style="shape=tableRow;horizontal=0;startSize=0;swimlaneHead=0;swimlaneBody=0;fillColor=none;collapsible=0;dropTarget=0;points=[[0,0.5],[1,0.5]];portConstraint=eastwest;top=0;left=0;right=0;bottom=0;" vertex="1" parent="HWamq-SZzbTKF-_1uP7r-82">
          <mxGeometry y="130" width="310" height="30" as="geometry" />
        </mxCell>
        <mxCell id="HWamq-SZzbTKF-_1uP7r-96" value="" style="shape=partialRectangle;connectable=0;fillColor=none;top=0;left=0;bottom=0;right=0;editable=1;overflow=hidden;whiteSpace=wrap;html=1;" vertex="1" parent="HWamq-SZzbTKF-_1uP7r-95">
          <mxGeometry width="20" height="30" as="geometry">
            <mxRectangle width="20" height="30" as="alternateBounds" />
          </mxGeometry>
        </mxCell>
        <mxCell id="HWamq-SZzbTKF-_1uP7r-97" value="&lt;font face=&quot;Comic Sans MS&quot;&gt;voucher_created DATE NOT NULL&lt;/font&gt;" style="shape=partialRectangle;connectable=0;fillColor=none;top=0;left=0;bottom=0;right=0;align=left;spacingLeft=6;overflow=hidden;whiteSpace=wrap;html=1;" vertex="1" parent="HWamq-SZzbTKF-_1uP7r-95">
          <mxGeometry x="20" width="290" height="30" as="geometry">
            <mxRectangle width="290" height="30" as="alternateBounds" />
          </mxGeometry>
        </mxCell>
        <mxCell id="HWamq-SZzbTKF-_1uP7r-98" value="" style="shape=tableRow;horizontal=0;startSize=0;swimlaneHead=0;swimlaneBody=0;fillColor=none;collapsible=0;dropTarget=0;points=[[0,0.5],[1,0.5]];portConstraint=eastwest;top=0;left=0;right=0;bottom=0;" vertex="1" parent="HWamq-SZzbTKF-_1uP7r-82">
          <mxGeometry y="160" width="310" height="30" as="geometry" />
        </mxCell>
        <mxCell id="HWamq-SZzbTKF-_1uP7r-99" value="FK" style="shape=partialRectangle;connectable=0;fillColor=#F8CECC;top=0;left=0;bottom=0;right=0;editable=1;overflow=hidden;whiteSpace=wrap;html=1;" vertex="1" parent="HWamq-SZzbTKF-_1uP7r-98">
          <mxGeometry width="20" height="30" as="geometry">
            <mxRectangle width="20" height="30" as="alternateBounds" />
          </mxGeometry>
        </mxCell>
        <mxCell id="HWamq-SZzbTKF-_1uP7r-100" value="&lt;font face=&quot;Comic Sans MS&quot;&gt;user_id INT NOT NULL&lt;/font&gt;" style="shape=partialRectangle;connectable=0;fillColor=none;top=0;left=0;bottom=0;right=0;align=left;spacingLeft=6;overflow=hidden;whiteSpace=wrap;html=1;" vertex="1" parent="HWamq-SZzbTKF-_1uP7r-98">
          <mxGeometry x="20" width="290" height="30" as="geometry">
            <mxRectangle width="290" height="30" as="alternateBounds" />
          </mxGeometry>
        </mxCell>
        <mxCell id="HWamq-SZzbTKF-_1uP7r-105" value="" style="edgeStyle=entityRelationEdgeStyle;fontSize=12;html=1;endArrow=ERoneToMany;rounded=0;entryX=1;entryY=0.5;entryDx=0;entryDy=0;exitX=0;exitY=0.5;exitDx=0;exitDy=0;" edge="1" parent="1" source="HWamq-SZzbTKF-_1uP7r-25" target="HWamq-SZzbTKF-_1uP7r-98">
          <mxGeometry width="100" height="100" relative="1" as="geometry">
            <mxPoint x="-280" y="260" as="sourcePoint" />
            <mxPoint x="-180" y="160" as="targetPoint" />
          </mxGeometry>
        </mxCell>
        <mxCell id="HWamq-SZzbTKF-_1uP7r-106" value="&lt;font style=&quot;font-size: 18px;&quot;&gt;dim_shippers&lt;/font&gt;" style="shape=table;startSize=40;container=1;collapsible=1;childLayout=tableLayout;fixedRows=1;rowLines=0;fontStyle=1;align=center;resizeLast=1;html=1;fillColor=#8AE6D5;" vertex="1" parent="1">
          <mxGeometry x="-60" y="658" width="300" height="112" as="geometry" />
        </mxCell>
        <mxCell id="HWamq-SZzbTKF-_1uP7r-107" value="" style="shape=tableRow;horizontal=0;startSize=0;swimlaneHead=0;swimlaneBody=0;fillColor=none;collapsible=0;dropTarget=0;points=[[0,0.5],[1,0.5]];portConstraint=eastwest;top=0;left=0;right=0;bottom=1;" vertex="1" parent="HWamq-SZzbTKF-_1uP7r-106">
          <mxGeometry y="40" width="300" height="30" as="geometry" />
        </mxCell>
        <mxCell id="HWamq-SZzbTKF-_1uP7r-108" value="PK" style="shape=partialRectangle;connectable=0;fillColor=#A9C4EB;top=0;left=0;bottom=0;right=0;fontStyle=1;overflow=hidden;whiteSpace=wrap;html=1;" vertex="1" parent="HWamq-SZzbTKF-_1uP7r-107">
          <mxGeometry width="30" height="30" as="geometry">
            <mxRectangle width="30" height="30" as="alternateBounds" />
          </mxGeometry>
        </mxCell>
        <mxCell id="HWamq-SZzbTKF-_1uP7r-109" value="shipper_id INT NOT NULL" style="shape=partialRectangle;connectable=0;fillColor=#FFF4C3;top=0;left=0;bottom=0;right=0;align=left;spacingLeft=6;fontStyle=5;overflow=hidden;whiteSpace=wrap;html=1;" vertex="1" parent="HWamq-SZzbTKF-_1uP7r-107">
          <mxGeometry x="30" width="270" height="30" as="geometry">
            <mxRectangle width="270" height="30" as="alternateBounds" />
          </mxGeometry>
        </mxCell>
        <mxCell id="HWamq-SZzbTKF-_1uP7r-110" value="" style="shape=tableRow;horizontal=0;startSize=0;swimlaneHead=0;swimlaneBody=0;fillColor=none;collapsible=0;dropTarget=0;points=[[0,0.5],[1,0.5]];portConstraint=eastwest;top=0;left=0;right=0;bottom=0;" vertex="1" parent="HWamq-SZzbTKF-_1uP7r-106">
          <mxGeometry y="70" width="300" height="42" as="geometry" />
        </mxCell>
        <mxCell id="HWamq-SZzbTKF-_1uP7r-111" value="" style="shape=partialRectangle;connectable=0;fillColor=none;top=0;left=0;bottom=0;right=0;editable=1;overflow=hidden;whiteSpace=wrap;html=1;" vertex="1" parent="HWamq-SZzbTKF-_1uP7r-110">
          <mxGeometry width="30" height="42" as="geometry">
            <mxRectangle width="30" height="42" as="alternateBounds" />
          </mxGeometry>
        </mxCell>
        <mxCell id="HWamq-SZzbTKF-_1uP7r-112" value="&lt;font face=&quot;Comic Sans MS&quot;&gt;shipper_name VARCHAR ( 255 ) NOT NULL&lt;/font&gt;" style="shape=partialRectangle;connectable=0;fillColor=none;top=0;left=0;bottom=0;right=0;align=left;spacingLeft=6;overflow=hidden;whiteSpace=wrap;html=1;" vertex="1" parent="HWamq-SZzbTKF-_1uP7r-110">
          <mxGeometry x="30" width="270" height="42" as="geometry">
            <mxRectangle width="270" height="42" as="alternateBounds" />
          </mxGeometry>
        </mxCell>
        <mxCell id="HWamq-SZzbTKF-_1uP7r-116" value="&lt;font style=&quot;font-size: 18px;&quot;&gt;dim_ratings&lt;/font&gt;" style="shape=table;startSize=40;container=1;collapsible=1;childLayout=tableLayout;fixedRows=1;rowLines=0;fontStyle=1;align=center;resizeLast=1;html=1;fillColor=#8AE6D5;" vertex="1" parent="1">
          <mxGeometry x="-60" y="840" width="300" height="130" as="geometry" />
        </mxCell>
        <mxCell id="HWamq-SZzbTKF-_1uP7r-117" value="" style="shape=tableRow;horizontal=0;startSize=0;swimlaneHead=0;swimlaneBody=0;fillColor=none;collapsible=0;dropTarget=0;points=[[0,0.5],[1,0.5]];portConstraint=eastwest;top=0;left=0;right=0;bottom=1;" vertex="1" parent="HWamq-SZzbTKF-_1uP7r-116">
          <mxGeometry y="40" width="300" height="30" as="geometry" />
        </mxCell>
        <mxCell id="HWamq-SZzbTKF-_1uP7r-118" value="PK" style="shape=partialRectangle;connectable=0;fillColor=#A9C4EB;top=0;left=0;bottom=0;right=0;fontStyle=1;overflow=hidden;whiteSpace=wrap;html=1;" vertex="1" parent="HWamq-SZzbTKF-_1uP7r-117">
          <mxGeometry width="30" height="30" as="geometry">
            <mxRectangle width="30" height="30" as="alternateBounds" />
          </mxGeometry>
        </mxCell>
        <mxCell id="HWamq-SZzbTKF-_1uP7r-119" value="rating_id INT NOT NULL" style="shape=partialRectangle;connectable=0;fillColor=#FFF4C3;top=0;left=0;bottom=0;right=0;align=left;spacingLeft=6;fontStyle=5;overflow=hidden;whiteSpace=wrap;html=1;" vertex="1" parent="HWamq-SZzbTKF-_1uP7r-117">
          <mxGeometry x="30" width="270" height="30" as="geometry">
            <mxRectangle width="270" height="30" as="alternateBounds" />
          </mxGeometry>
        </mxCell>
        <mxCell id="HWamq-SZzbTKF-_1uP7r-120" value="" style="shape=tableRow;horizontal=0;startSize=0;swimlaneHead=0;swimlaneBody=0;fillColor=none;collapsible=0;dropTarget=0;points=[[0,0.5],[1,0.5]];portConstraint=eastwest;top=0;left=0;right=0;bottom=0;" vertex="1" parent="HWamq-SZzbTKF-_1uP7r-116">
          <mxGeometry y="70" width="300" height="30" as="geometry" />
        </mxCell>
        <mxCell id="HWamq-SZzbTKF-_1uP7r-121" value="" style="shape=partialRectangle;connectable=0;fillColor=none;top=0;left=0;bottom=0;right=0;editable=1;overflow=hidden;whiteSpace=wrap;html=1;" vertex="1" parent="HWamq-SZzbTKF-_1uP7r-120">
          <mxGeometry width="30" height="30" as="geometry">
            <mxRectangle width="30" height="30" as="alternateBounds" />
          </mxGeometry>
        </mxCell>
        <mxCell id="HWamq-SZzbTKF-_1uP7r-122" value="&lt;font face=&quot;Comic Sans MS&quot;&gt;rating_level INT NOT NULL&lt;/font&gt;" style="shape=partialRectangle;connectable=0;fillColor=none;top=0;left=0;bottom=0;right=0;align=left;spacingLeft=6;overflow=hidden;whiteSpace=wrap;html=1;" vertex="1" parent="HWamq-SZzbTKF-_1uP7r-120">
          <mxGeometry x="30" width="270" height="30" as="geometry">
            <mxRectangle width="270" height="30" as="alternateBounds" />
          </mxGeometry>
        </mxCell>
        <mxCell id="HWamq-SZzbTKF-_1uP7r-123" value="" style="shape=tableRow;horizontal=0;startSize=0;swimlaneHead=0;swimlaneBody=0;fillColor=none;collapsible=0;dropTarget=0;points=[[0,0.5],[1,0.5]];portConstraint=eastwest;top=0;left=0;right=0;bottom=0;" vertex="1" parent="HWamq-SZzbTKF-_1uP7r-116">
          <mxGeometry y="100" width="300" height="30" as="geometry" />
        </mxCell>
        <mxCell id="HWamq-SZzbTKF-_1uP7r-124" value="" style="shape=partialRectangle;connectable=0;fillColor=none;top=0;left=0;bottom=0;right=0;editable=1;overflow=hidden;whiteSpace=wrap;html=1;" vertex="1" parent="HWamq-SZzbTKF-_1uP7r-123">
          <mxGeometry width="30" height="30" as="geometry">
            <mxRectangle width="30" height="30" as="alternateBounds" />
          </mxGeometry>
        </mxCell>
        <mxCell id="HWamq-SZzbTKF-_1uP7r-125" value="&lt;font face=&quot;Comic Sans MS&quot;&gt;rating_status VARCHAR ( 255 ) NOT NULL&lt;/font&gt;" style="shape=partialRectangle;connectable=0;fillColor=none;top=0;left=0;bottom=0;right=0;align=left;spacingLeft=6;overflow=hidden;whiteSpace=wrap;html=1;" vertex="1" parent="HWamq-SZzbTKF-_1uP7r-123">
          <mxGeometry x="30" width="270" height="30" as="geometry">
            <mxRectangle width="270" height="30" as="alternateBounds" />
          </mxGeometry>
        </mxCell>
        <mxCell id="HWamq-SZzbTKF-_1uP7r-145" value="" style="edgeStyle=entityRelationEdgeStyle;fontSize=12;html=1;endArrow=ERoneToMany;rounded=0;entryX=0;entryY=0.5;entryDx=0;entryDy=0;exitX=1;exitY=0.5;exitDx=0;exitDy=0;" edge="1" parent="1" source="HWamq-SZzbTKF-_1uP7r-107" target="HWamq-SZzbTKF-_1uP7r-21">
          <mxGeometry width="100" height="100" relative="1" as="geometry">
            <mxPoint x="240" y="530" as="sourcePoint" />
            <mxPoint x="340" y="430" as="targetPoint" />
            <Array as="points">
              <mxPoint x="340" y="530" />
            </Array>
          </mxGeometry>
        </mxCell>
        <mxCell id="HWamq-SZzbTKF-_1uP7r-146" value="" style="edgeStyle=entityRelationEdgeStyle;fontSize=12;html=1;endArrow=ERoneToMany;rounded=0;entryX=0;entryY=0.5;entryDx=0;entryDy=0;exitX=0.998;exitY=0.288;exitDx=0;exitDy=0;exitPerimeter=0;" edge="1" parent="1" source="HWamq-SZzbTKF-_1uP7r-117" target="HWamq-SZzbTKF-_1uP7r-142">
          <mxGeometry width="100" height="100" relative="1" as="geometry">
            <mxPoint x="240" y="660" as="sourcePoint" />
            <mxPoint x="340" y="560" as="targetPoint" />
          </mxGeometry>
        </mxCell>
        <mxCell id="HWamq-SZzbTKF-_1uP7r-159" value="&lt;font style=&quot;font-size: 18px;&quot;&gt;dim_products&lt;/font&gt;" style="shape=table;startSize=40;container=1;collapsible=1;childLayout=tableLayout;fixedRows=1;rowLines=0;fontStyle=1;align=center;resizeLast=1;html=1;fillColor=#8AE6D5;" vertex="1" parent="1">
          <mxGeometry x="1100" y="90" width="290" height="220" as="geometry" />
        </mxCell>
        <mxCell id="HWamq-SZzbTKF-_1uP7r-160" value="" style="shape=tableRow;horizontal=0;startSize=0;swimlaneHead=0;swimlaneBody=0;fillColor=none;collapsible=0;dropTarget=0;points=[[0,0.5],[1,0.5]];portConstraint=eastwest;top=0;left=0;right=0;bottom=1;" vertex="1" parent="HWamq-SZzbTKF-_1uP7r-159">
          <mxGeometry y="40" width="290" height="30" as="geometry" />
        </mxCell>
        <mxCell id="HWamq-SZzbTKF-_1uP7r-161" value="PK" style="shape=partialRectangle;connectable=0;fillColor=#A9C4EB;top=0;left=0;bottom=0;right=0;fontStyle=1;overflow=hidden;whiteSpace=wrap;html=1;" vertex="1" parent="HWamq-SZzbTKF-_1uP7r-160">
          <mxGeometry width="30" height="30" as="geometry">
            <mxRectangle width="30" height="30" as="alternateBounds" />
          </mxGeometry>
        </mxCell>
        <mxCell id="HWamq-SZzbTKF-_1uP7r-162" value="product_id INT NOT NULL" style="shape=partialRectangle;connectable=0;fillColor=#FFF4C3;top=0;left=0;bottom=0;right=0;align=left;spacingLeft=6;fontStyle=5;overflow=hidden;whiteSpace=wrap;html=1;" vertex="1" parent="HWamq-SZzbTKF-_1uP7r-160">
          <mxGeometry x="30" width="260" height="30" as="geometry">
            <mxRectangle width="260" height="30" as="alternateBounds" />
          </mxGeometry>
        </mxCell>
        <mxCell id="HWamq-SZzbTKF-_1uP7r-163" value="" style="shape=tableRow;horizontal=0;startSize=0;swimlaneHead=0;swimlaneBody=0;fillColor=none;collapsible=0;dropTarget=0;points=[[0,0.5],[1,0.5]];portConstraint=eastwest;top=0;left=0;right=0;bottom=0;" vertex="1" parent="HWamq-SZzbTKF-_1uP7r-159">
          <mxGeometry y="70" width="290" height="30" as="geometry" />
        </mxCell>
        <mxCell id="HWamq-SZzbTKF-_1uP7r-164" value="FK" style="shape=partialRectangle;connectable=0;fillColor=#F8CECC;top=0;left=0;bottom=0;right=0;editable=1;overflow=hidden;whiteSpace=wrap;html=1;" vertex="1" parent="HWamq-SZzbTKF-_1uP7r-163">
          <mxGeometry width="30" height="30" as="geometry">
            <mxRectangle width="30" height="30" as="alternateBounds" />
          </mxGeometry>
        </mxCell>
        <mxCell id="HWamq-SZzbTKF-_1uP7r-165" value="&lt;font face=&quot;Comic Sans MS&quot;&gt;product_category_id INT NOT NULL&lt;/font&gt;" style="shape=partialRectangle;connectable=0;fillColor=none;top=0;left=0;bottom=0;right=0;align=left;spacingLeft=6;overflow=hidden;whiteSpace=wrap;html=1;" vertex="1" parent="HWamq-SZzbTKF-_1uP7r-163">
          <mxGeometry x="30" width="260" height="30" as="geometry">
            <mxRectangle width="260" height="30" as="alternateBounds" />
          </mxGeometry>
        </mxCell>
        <mxCell id="HWamq-SZzbTKF-_1uP7r-166" value="" style="shape=tableRow;horizontal=0;startSize=0;swimlaneHead=0;swimlaneBody=0;fillColor=none;collapsible=0;dropTarget=0;points=[[0,0.5],[1,0.5]];portConstraint=eastwest;top=0;left=0;right=0;bottom=0;" vertex="1" parent="HWamq-SZzbTKF-_1uP7r-159">
          <mxGeometry y="100" width="290" height="30" as="geometry" />
        </mxCell>
        <mxCell id="HWamq-SZzbTKF-_1uP7r-167" value="" style="shape=partialRectangle;connectable=0;fillColor=none;top=0;left=0;bottom=0;right=0;editable=1;overflow=hidden;whiteSpace=wrap;html=1;" vertex="1" parent="HWamq-SZzbTKF-_1uP7r-166">
          <mxGeometry width="30" height="30" as="geometry">
            <mxRectangle width="30" height="30" as="alternateBounds" />
          </mxGeometry>
        </mxCell>
        <mxCell id="HWamq-SZzbTKF-_1uP7r-168" value="&lt;font face=&quot;Comic Sans MS&quot;&gt;product_name VARCHAR ( 255 ) NOT NULL&lt;/font&gt;" style="shape=partialRectangle;connectable=0;fillColor=none;top=0;left=0;bottom=0;right=0;align=left;spacingLeft=6;overflow=hidden;whiteSpace=wrap;html=1;" vertex="1" parent="HWamq-SZzbTKF-_1uP7r-166">
          <mxGeometry x="30" width="260" height="30" as="geometry">
            <mxRectangle width="260" height="30" as="alternateBounds" />
          </mxGeometry>
        </mxCell>
        <mxCell id="HWamq-SZzbTKF-_1uP7r-169" value="" style="shape=tableRow;horizontal=0;startSize=0;swimlaneHead=0;swimlaneBody=0;fillColor=none;collapsible=0;dropTarget=0;points=[[0,0.5],[1,0.5]];portConstraint=eastwest;top=0;left=0;right=0;bottom=0;" vertex="1" parent="HWamq-SZzbTKF-_1uP7r-159">
          <mxGeometry y="130" width="290" height="30" as="geometry" />
        </mxCell>
        <mxCell id="HWamq-SZzbTKF-_1uP7r-170" value="" style="shape=partialRectangle;connectable=0;fillColor=none;top=0;left=0;bottom=0;right=0;editable=1;overflow=hidden;whiteSpace=wrap;html=1;" vertex="1" parent="HWamq-SZzbTKF-_1uP7r-169">
          <mxGeometry width="30" height="30" as="geometry">
            <mxRectangle width="30" height="30" as="alternateBounds" />
          </mxGeometry>
        </mxCell>
        <mxCell id="HWamq-SZzbTKF-_1uP7r-171" value="&lt;font face=&quot;Comic Sans MS&quot;&gt;product_created DATE NOT NULL&lt;/font&gt;" style="shape=partialRectangle;connectable=0;fillColor=none;top=0;left=0;bottom=0;right=0;align=left;spacingLeft=6;overflow=hidden;whiteSpace=wrap;html=1;" vertex="1" parent="HWamq-SZzbTKF-_1uP7r-169">
          <mxGeometry x="30" width="260" height="30" as="geometry">
            <mxRectangle width="260" height="30" as="alternateBounds" />
          </mxGeometry>
        </mxCell>
        <mxCell id="HWamq-SZzbTKF-_1uP7r-172" value="" style="shape=tableRow;horizontal=0;startSize=0;swimlaneHead=0;swimlaneBody=0;fillColor=none;collapsible=0;dropTarget=0;points=[[0,0.5],[1,0.5]];portConstraint=eastwest;top=0;left=0;right=0;bottom=0;" vertex="1" parent="HWamq-SZzbTKF-_1uP7r-159">
          <mxGeometry y="160" width="290" height="30" as="geometry" />
        </mxCell>
        <mxCell id="HWamq-SZzbTKF-_1uP7r-173" value="" style="shape=partialRectangle;connectable=0;fillColor=none;top=0;left=0;bottom=0;right=0;editable=1;overflow=hidden;whiteSpace=wrap;html=1;" vertex="1" parent="HWamq-SZzbTKF-_1uP7r-172">
          <mxGeometry width="30" height="30" as="geometry">
            <mxRectangle width="30" height="30" as="alternateBounds" />
          </mxGeometry>
        </mxCell>
        <mxCell id="HWamq-SZzbTKF-_1uP7r-174" value="&lt;font face=&quot;Comic Sans MS&quot;&gt;product_price INT NOT NULL&lt;/font&gt;" style="shape=partialRectangle;connectable=0;fillColor=none;top=0;left=0;bottom=0;right=0;align=left;spacingLeft=6;overflow=hidden;whiteSpace=wrap;html=1;" vertex="1" parent="HWamq-SZzbTKF-_1uP7r-172">
          <mxGeometry x="30" width="260" height="30" as="geometry">
            <mxRectangle width="260" height="30" as="alternateBounds" />
          </mxGeometry>
        </mxCell>
        <mxCell id="HWamq-SZzbTKF-_1uP7r-175" value="" style="shape=tableRow;horizontal=0;startSize=0;swimlaneHead=0;swimlaneBody=0;fillColor=none;collapsible=0;dropTarget=0;points=[[0,0.5],[1,0.5]];portConstraint=eastwest;top=0;left=0;right=0;bottom=0;" vertex="1" parent="HWamq-SZzbTKF-_1uP7r-159">
          <mxGeometry y="190" width="290" height="30" as="geometry" />
        </mxCell>
        <mxCell id="HWamq-SZzbTKF-_1uP7r-176" value="" style="shape=partialRectangle;connectable=0;fillColor=none;top=0;left=0;bottom=0;right=0;editable=1;overflow=hidden;whiteSpace=wrap;html=1;" vertex="1" parent="HWamq-SZzbTKF-_1uP7r-175">
          <mxGeometry width="30" height="30" as="geometry">
            <mxRectangle width="30" height="30" as="alternateBounds" />
          </mxGeometry>
        </mxCell>
        <mxCell id="HWamq-SZzbTKF-_1uP7r-177" value="&lt;font face=&quot;Comic Sans MS&quot;&gt;product_discount INT&lt;/font&gt;" style="shape=partialRectangle;connectable=0;fillColor=none;top=0;left=0;bottom=0;right=0;align=left;spacingLeft=6;overflow=hidden;whiteSpace=wrap;html=1;" vertex="1" parent="HWamq-SZzbTKF-_1uP7r-175">
          <mxGeometry x="30" width="260" height="30" as="geometry">
            <mxRectangle width="260" height="30" as="alternateBounds" />
          </mxGeometry>
        </mxCell>
        <mxCell id="HWamq-SZzbTKF-_1uP7r-184" value="&lt;font style=&quot;font-size: 18px;&quot;&gt;dim_product_category&lt;/font&gt;" style="shape=table;startSize=55;container=1;collapsible=1;childLayout=tableLayout;fixedRows=1;rowLines=0;fontStyle=1;align=center;resizeLast=1;html=1;fillColor=#8AE6D5;" vertex="1" parent="1">
          <mxGeometry x="1480" y="58" width="360" height="125" as="geometry" />
        </mxCell>
        <mxCell id="HWamq-SZzbTKF-_1uP7r-185" value="" style="shape=tableRow;horizontal=0;startSize=0;swimlaneHead=0;swimlaneBody=0;fillColor=none;collapsible=0;dropTarget=0;points=[[0,0.5],[1,0.5]];portConstraint=eastwest;top=0;left=0;right=0;bottom=1;" vertex="1" parent="HWamq-SZzbTKF-_1uP7r-184">
          <mxGeometry y="55" width="360" height="30" as="geometry" />
        </mxCell>
        <mxCell id="HWamq-SZzbTKF-_1uP7r-186" value="PK" style="shape=partialRectangle;connectable=0;fillColor=#A9C4EB;top=0;left=0;bottom=0;right=0;fontStyle=1;overflow=hidden;whiteSpace=wrap;html=1;" vertex="1" parent="HWamq-SZzbTKF-_1uP7r-185">
          <mxGeometry width="30" height="30" as="geometry">
            <mxRectangle width="30" height="30" as="alternateBounds" />
          </mxGeometry>
        </mxCell>
        <mxCell id="HWamq-SZzbTKF-_1uP7r-187" value="product_category_id INT NOT NULL" style="shape=partialRectangle;connectable=0;fillColor=#FFF4C3;top=0;left=0;bottom=0;right=0;align=left;spacingLeft=6;fontStyle=5;overflow=hidden;whiteSpace=wrap;html=1;" vertex="1" parent="HWamq-SZzbTKF-_1uP7r-185">
          <mxGeometry x="30" width="330" height="30" as="geometry">
            <mxRectangle width="330" height="30" as="alternateBounds" />
          </mxGeometry>
        </mxCell>
        <mxCell id="HWamq-SZzbTKF-_1uP7r-188" value="" style="shape=tableRow;horizontal=0;startSize=0;swimlaneHead=0;swimlaneBody=0;fillColor=none;collapsible=0;dropTarget=0;points=[[0,0.5],[1,0.5]];portConstraint=eastwest;top=0;left=0;right=0;bottom=0;" vertex="1" parent="HWamq-SZzbTKF-_1uP7r-184">
          <mxGeometry y="85" width="360" height="40" as="geometry" />
        </mxCell>
        <mxCell id="HWamq-SZzbTKF-_1uP7r-189" value="" style="shape=partialRectangle;connectable=0;fillColor=none;top=0;left=0;bottom=0;right=0;editable=1;overflow=hidden;whiteSpace=wrap;html=1;" vertex="1" parent="HWamq-SZzbTKF-_1uP7r-188">
          <mxGeometry width="30" height="40" as="geometry">
            <mxRectangle width="30" height="40" as="alternateBounds" />
          </mxGeometry>
        </mxCell>
        <mxCell id="HWamq-SZzbTKF-_1uP7r-190" value="&lt;font face=&quot;Comic Sans MS&quot;&gt;product_category_name VARCHAR ( 255 ) NOT NULL&lt;/font&gt;" style="shape=partialRectangle;connectable=0;fillColor=none;top=0;left=0;bottom=0;right=0;align=left;spacingLeft=6;overflow=hidden;whiteSpace=wrap;html=1;" vertex="1" parent="HWamq-SZzbTKF-_1uP7r-188">
          <mxGeometry x="30" width="330" height="40" as="geometry">
            <mxRectangle width="330" height="40" as="alternateBounds" />
          </mxGeometry>
        </mxCell>
        <mxCell id="HWamq-SZzbTKF-_1uP7r-203" value="" style="edgeStyle=entityRelationEdgeStyle;fontSize=12;html=1;endArrow=ERoneToMany;rounded=0;exitX=0;exitY=0.5;exitDx=0;exitDy=0;" edge="1" parent="1" source="HWamq-SZzbTKF-_1uP7r-160" target="HWamq-SZzbTKF-_1uP7r-59">
          <mxGeometry width="100" height="100" relative="1" as="geometry">
            <mxPoint x="1050" y="240" as="sourcePoint" />
            <mxPoint x="1090" y="310" as="targetPoint" />
          </mxGeometry>
        </mxCell>
        <mxCell id="HWamq-SZzbTKF-_1uP7r-204" value="" style="edgeStyle=entityRelationEdgeStyle;fontSize=12;html=1;endArrow=ERoneToMany;rounded=0;entryX=1;entryY=0.5;entryDx=0;entryDy=0;exitX=0;exitY=0.5;exitDx=0;exitDy=0;" edge="1" parent="1" source="HWamq-SZzbTKF-_1uP7r-185" target="HWamq-SZzbTKF-_1uP7r-163">
          <mxGeometry width="100" height="100" relative="1" as="geometry">
            <mxPoint x="1310" y="410" as="sourcePoint" />
            <mxPoint x="1410" y="310" as="targetPoint" />
          </mxGeometry>
        </mxCell>
        <mxCell id="HWamq-SZzbTKF-_1uP7r-205" value="&lt;b&gt;&lt;font style=&quot;font-size: 36px;&quot;&gt;SPIDERWEB TEAM ( KELOMPOK 5 ) :&amp;nbsp;&lt;/font&gt;&lt;/b&gt;&lt;div&gt;&lt;font style=&quot;font-size: 18px;&quot;&gt;&lt;br&gt;&lt;/font&gt;&lt;div&gt;&lt;font style=&quot;font-size: 24px;&quot;&gt;1. Hafidha Harfiana Dewi&lt;br&gt;&lt;br&gt;&lt;/font&gt;&lt;/div&gt;&lt;div&gt;&lt;font style=&quot;font-size: 24px;&quot;&gt;2. Hermawan Adi Prasetyo&lt;br&gt;&lt;br&gt;&lt;/font&gt;&lt;/div&gt;&lt;div&gt;&lt;font style=&quot;font-size: 24px;&quot;&gt;3. Humairoh&lt;br&gt;&lt;br&gt;&lt;/font&gt;&lt;/div&gt;&lt;div&gt;&lt;font style=&quot;font-size: 24px;&quot;&gt;4. I Gusti Agung Krishna Dwipayana&lt;br&gt;&lt;br&gt;&lt;/font&gt;&lt;/div&gt;&lt;div&gt;&lt;font style=&quot;font-size: 24px;&quot;&gt;5. I Putu Ferry Wistika&lt;/font&gt;&lt;/div&gt;&lt;/div&gt;" style="text;html=1;align=left;verticalAlign=middle;resizable=0;points=[];autosize=1;strokeColor=none;fillColor=none;" vertex="1" parent="1">
          <mxGeometry x="500" y="750" width="680" height="340" as="geometry" />
        </mxCell>
        <mxCell id="HWamq-SZzbTKF-_1uP7r-207" value="" style="verticalLabelPosition=bottom;verticalAlign=top;html=1;shape=mxgraph.flowchart.parallel_mode;pointerEvents=1" vertex="1" parent="1">
          <mxGeometry x="1520" y="183" width="320" height="40" as="geometry" />
        </mxCell>
        <mxCell id="HWamq-SZzbTKF-_1uP7r-208" value="" style="verticalLabelPosition=bottom;verticalAlign=top;html=1;shape=mxgraph.flowchart.parallel_mode;pointerEvents=1" vertex="1" parent="1">
          <mxGeometry x="1130" y="310" width="260" height="40" as="geometry" />
        </mxCell>
        <mxCell id="HWamq-SZzbTKF-_1uP7r-209" value="" style="verticalLabelPosition=bottom;verticalAlign=top;html=1;shape=mxgraph.flowchart.parallel_mode;pointerEvents=1" vertex="1" parent="1">
          <mxGeometry x="710" y="600" width="260" height="40" as="geometry" />
        </mxCell>
        <mxCell id="HWamq-SZzbTKF-_1uP7r-210" value="" style="verticalLabelPosition=bottom;verticalAlign=top;html=1;shape=mxgraph.flowchart.parallel_mode;pointerEvents=1" vertex="1" parent="1">
          <mxGeometry x="380" y="500" width="220" height="40" as="geometry" />
        </mxCell>
        <mxCell id="HWamq-SZzbTKF-_1uP7r-211" value="" style="verticalLabelPosition=bottom;verticalAlign=top;html=1;shape=mxgraph.flowchart.parallel_mode;pointerEvents=1" vertex="1" parent="1">
          <mxGeometry x="-45" y="223" width="270" height="30" as="geometry" />
        </mxCell>
        <mxCell id="HWamq-SZzbTKF-_1uP7r-212" value="" style="verticalLabelPosition=bottom;verticalAlign=top;html=1;shape=mxgraph.flowchart.parallel_mode;pointerEvents=1" vertex="1" parent="1">
          <mxGeometry x="-30" y="580" width="270" height="30" as="geometry" />
        </mxCell>
        <mxCell id="HWamq-SZzbTKF-_1uP7r-213" value="" style="verticalLabelPosition=bottom;verticalAlign=top;html=1;shape=mxgraph.flowchart.parallel_mode;pointerEvents=1" vertex="1" parent="1">
          <mxGeometry x="-30" y="770" width="270" height="30" as="geometry" />
        </mxCell>
        <mxCell id="HWamq-SZzbTKF-_1uP7r-214" value="" style="verticalLabelPosition=bottom;verticalAlign=top;html=1;shape=mxgraph.flowchart.parallel_mode;pointerEvents=1" vertex="1" parent="1">
          <mxGeometry x="-30" y="970" width="270" height="30" as="geometry" />
        </mxCell>
        <mxCell id="HWamq-SZzbTKF-_1uP7r-215" value="" style="verticalLabelPosition=bottom;verticalAlign=top;html=1;shape=mxgraph.flowchart.parallel_mode;pointerEvents=1" vertex="1" parent="1">
          <mxGeometry x="-490" y="370" width="290" height="30" as="geometry" />
        </mxCell>
        <mxCell id="HWamq-SZzbTKF-_1uP7r-216" value="" style="endArrow=none;html=1;rounded=0;" edge="1" parent="1">
          <mxGeometry width="50" height="50" relative="1" as="geometry">
            <mxPoint x="1920" y="1120" as="sourcePoint" />
            <mxPoint x="1920" as="targetPoint" />
            <Array as="points">
              <mxPoint x="1920" y="730" />
            </Array>
          </mxGeometry>
        </mxCell>
        <mxCell id="HWamq-SZzbTKF-_1uP7r-217" value="" style="endArrow=none;html=1;rounded=0;" edge="1" parent="1">
          <mxGeometry width="50" height="50" relative="1" as="geometry">
            <mxPoint x="-640" y="1110" as="sourcePoint" />
            <mxPoint x="-640" y="-80" as="targetPoint" />
            <Array as="points" />
          </mxGeometry>
        </mxCell>
        <mxCell id="23FpsGrwS3XUbfDcPH-G-1" value="" style="edgeStyle=entityRelationEdgeStyle;fontSize=12;html=1;endArrow=ERoneToMany;rounded=0;exitX=1;exitY=0.5;exitDx=0;exitDy=0;entryX=0;entryY=0.5;entryDx=0;entryDy=0;" edge="1" parent="1" source="HWamq-SZzbTKF-_1uP7r-83" target="HWamq-SZzbTKF-_1uP7r-136">
          <mxGeometry width="100" height="100" relative="1" as="geometry">
            <mxPoint x="-130" y="170.5" as="sourcePoint" />
            <mxPoint x="-30" y="70.5" as="targetPoint" />
            <Array as="points">
              <mxPoint x="-190" y="-119.5" />
              <mxPoint x="-130" y="-9.5" />
              <mxPoint x="-200" y="-109.5" />
            </Array>
          </mxGeometry>
        </mxCell>
        <mxCell id="23FpsGrwS3XUbfDcPH-G-2" value="FK" style="shape=partialRectangle;connectable=0;fillColor=#F8CECC;top=0;left=0;bottom=0;right=0;editable=1;overflow=hidden;whiteSpace=wrap;html=1;" vertex="1" parent="1">
          <mxGeometry x="350" y="410" width="30" height="30" as="geometry">
            <mxRectangle width="30" height="30" as="alternateBounds" />
          </mxGeometry>
        </mxCell>
      </root>
    </mxGraphModel>
  </diagram>
</mxfile>
